<svg width="54" height="45" viewBox="0 0 54 45" fill="none" xmlns="http://www.w3.org/2000/svg">
<path d="M31.3649 17.2348C31.3649 15.1037 29.8663 13.9273 27.2341 13.9273H22.3925V20.793H26.4752C29.6261 20.7834 31.3649 19.5105 31.3649 17.2348ZM48.9926 16.0005C48.08 13.0209 47.9456 9.36623 48.0512 6.54087C48.1569 3.5998 45.8706 0.899799 42.7965 0.899799H11.2107C8.12702 0.899799 5.8503 3.60944 5.95597 6.54087C6.05203 9.36623 5.92715 13.0209 5.01454 16.0005C4.09233 18.9898 2.5457 20.8798 0 21.1209V23.8691C2.53609 24.1102 4.09233 26.0002 5.01454 28.9895C5.92715 31.9691 6.06164 35.6237 5.95597 38.4491C5.8503 41.3902 8.13662 44.0902 11.2107 44.0902H42.7869C45.8706 44.0902 48.1473 41.3805 48.0416 38.4491C47.9456 35.6237 48.0704 31.9691 48.983 28.9895C49.9053 26.0002 51.4519 24.1102 53.988 23.8691V21.1209C51.4615 20.8798 49.9053 18.9898 48.9926 16.0005ZM28.166 33.9845H18.7613V11.0055H28.1179C32.2775 11.0055 35.0057 13.2619 35.0057 16.7334C35.0057 19.173 33.1709 21.3523 30.8269 21.7284V21.8537C34.0163 22.2009 36.1585 24.4187 36.1585 27.4755C36.1585 31.5352 33.1517 33.9845 28.166 33.9845ZM27.2053 23.5027H22.3925V31.0627H27.4167C30.7021 31.0627 32.4408 29.7416 32.4408 27.2537C32.4408 24.7755 30.654 23.5027 27.2053 23.5027Z" fill="#0094FF"/>
</svg>
