<svg width="31" height="45" viewBox="0 0 31 45" fill="none" xmlns="http://www.w3.org/2000/svg">
<path d="M15.6847 44.0821L3.19103 40.6137L0.406815 9.38617H31L28.2129 40.6089L15.6847 44.0821Z" fill="#264DE4"/>
<path d="M25.8268 38.6208L28.2085 11.9394H15.7034V41.4273L25.8268 38.6208Z" fill="#2965F1"/>
<path d="M6.7895 23.5213L7.13272 27.3513H15.7034V23.5213H6.7895ZM6.09972 15.7695L6.44785 19.5994H15.7034V15.7695H6.09972ZM15.7034 33.4681L15.6866 33.4725L11.4212 32.3208L11.1485 29.2663H7.30385L7.84038 35.2799L15.6858 37.4576L15.7034 37.4529V33.4681Z" fill="#EBEBEB"/>
<path d="M7.6068 0.8998H12.2454V2.83965H9.54665V4.7795H12.2456V6.71923H7.6068V0.8998ZM13.1732 0.8998H17.8119V2.58662H15.113V2.92396H17.8119V6.80366H13.1733V5.0323H15.8721V4.69496H13.1731V0.8998H13.1732ZM18.7397 0.8998H23.3784V2.58662H20.6796V2.92396H23.3784V6.80366H18.7397V5.0323H21.4385V4.69496H18.7398V0.8998H18.7397Z" fill="white"/>
<path d="M24.5928 23.5213L25.2842 15.7695H15.6902V19.5994H21.0869L20.7384 23.5213H15.6902V27.3513H20.4064L19.9617 32.3184L15.6901 33.4713V37.4558L23.5417 35.2799L23.5993 34.6328L24.4994 24.5498L24.5928 23.5213Z" fill="white"/>
</svg>
