<svg width="22" height="20" viewBox="0 0 22 20" fill="none" xmlns="http://www.w3.org/2000/svg">
<path d="M10.5707 0.000640776C4.76971 0.000640776 0.0700073 4.59314 0.0700073 10.2532C0.0700073 14.7855 3.07845 18.627 7.24786 19.9822C7.77486 20.079 7.96519 19.7618 7.96519 19.4875C7.96519 19.244 7.95928 18.6001 7.95534 17.7452C5.03288 18.363 4.41728 16.3669 4.41728 16.3669C3.93884 15.1853 3.24842 14.8681 3.24842 14.8681C2.29812 14.2344 3.3239 14.2478 3.3239 14.2478C4.37659 14.3177 4.9305 15.3019 4.9305 15.3019C5.86703 16.8706 7.38765 16.4169 7.98947 16.1529C8.08135 15.4922 8.35503 15.0379 8.65298 14.7848C6.32184 14.5279 3.87059 13.6468 3.87059 9.71814C3.87059 8.59613 4.27749 7.68237 4.95019 6.96469C4.83402 6.70773 4.47831 5.66325 5.04272 4.25097C5.04272 4.25097 5.9215 3.97735 7.9304 5.30249C8.78615 5.07525 9.66875 4.9587 10.5556 4.95583C11.4481 4.9616 12.34 5.07565 13.1807 5.30249C15.1778 3.97735 16.0559 4.25097 16.0559 4.25097C16.6197 5.66325 16.264 6.70709 16.1616 6.96469C16.8277 7.68237 17.2346 8.59677 17.2346 9.71814C17.2346 13.6558 14.7801 14.524 12.4463 14.7746C12.8112 15.0815 13.1532 15.7127 13.1532 16.6707C13.1532 18.0419 13.14 19.1466 13.14 19.4805C13.14 19.7471 13.3238 20.0675 13.8646 19.9643C18.0648 18.6231 21.07 14.7784 21.07 10.2526C21.07 4.5925 16.3703 0 10.5694 0L10.5707 0.000640776Z" fill="#B5B5B5"/>
</svg>
