<svg width="32" height="45" viewBox="0 0 32 45" fill="none" xmlns="http://www.w3.org/2000/svg">
<path d="M31.4533 9.4691L28.639 40.997L15.9883 44.5041L3.37256 41.0019L0.561127 9.4691H31.4533Z" fill="#E44D26"/>
<path d="M16.0072 41.8234L26.2296 38.9894L28.6345 12.0473H16.0072V41.8234Z" fill="#F16529"/>
<path d="M10.5362 19.7822H16.0072V15.9148H6.30963L6.40215 16.9523L7.35273 27.6098H16.0072V23.7424H10.8896L10.5362 19.7822ZM11.4078 29.5435H7.52553L8.0673 35.6159L15.9894 37.8149L16.0072 37.8101V33.7864L15.9902 33.7909L11.6832 32.6279L11.4078 29.5435Z" fill="#EBEBEB"/>
<path d="M3.43527 0.8998H5.40062V2.84153H7.1985V0.8998H9.16397V6.77986H7.19862V4.81088H5.40074V6.77986H3.43539L3.43527 0.8998ZM11.7483 2.84977H10.0184V0.8998H15.4451V2.84977H13.7141V6.77986H11.7487L11.7483 2.84977ZM16.3063 0.8998H18.3556L19.6162 2.9659L20.8755 0.8998H22.9256V6.77986H20.9683V3.86538L19.6162 5.95606H19.5822L18.2293 3.86538V6.77986H16.3063V0.8998ZM23.9037 0.8998H25.8697V4.83631H28.6335V6.77986H23.9036L23.9037 0.8998Z" fill="white"/>
<path d="M15.9939 27.6098H20.7561L20.3071 32.6255L15.9938 33.7896V37.8131L23.9221 35.6159L23.9803 34.9624L24.8892 24.7809L24.9835 23.7424H15.9939V27.6098ZM15.9939 19.7727V19.7822H25.3354L25.4129 18.9129L25.5892 16.9523L25.6816 15.9148H15.9939V19.7728V19.7727Z" fill="white"/>
</svg>
