<svg width="44" height="45" viewBox="0 0 44 45" fill="none" xmlns="http://www.w3.org/2000/svg">
<g clip-path="url(#clip0_3_49)">
<path d="M0.645294 0.899799H43.8357V44.0902H0.645294V0.899799Z" fill="#F7DF1E"/>
<path d="M12.0017 36.9928L15.3067 34.9925C15.9445 36.1231 16.5245 37.0797 17.9159 37.0797C19.2496 37.0797 20.0906 36.558 20.0906 34.5287V20.7284H24.1493V34.5861C24.1493 38.7899 21.6851 40.7034 18.0898 40.7034C14.843 40.7034 12.9583 39.0219 12.0015 36.9925M26.3539 36.5578L29.6586 34.6445C30.5287 36.0652 31.6594 37.1089 33.6596 37.1089C35.3415 37.1089 36.4138 36.268 36.4138 35.1083C36.4138 33.7167 35.3122 33.2238 33.4567 32.4122L32.4422 31.977C29.5138 30.7307 27.5715 29.165 27.5715 25.86C27.5715 22.8157 29.8908 20.4963 33.5149 20.4963C36.0951 20.4963 37.9506 21.3952 39.2842 23.7435L36.1238 25.7731C35.4279 24.5265 34.6744 24.0336 33.5147 24.0336C32.3259 24.0336 31.5721 24.7875 31.5721 25.7731C31.5721 26.9907 32.3259 27.4838 34.0654 28.2376L35.08 28.6724C38.5302 30.1512 40.4726 31.6586 40.4726 35.0504C40.4726 38.7037 37.6024 40.704 33.7465 40.704C29.9776 40.704 27.5423 38.9065 26.3537 36.558" fill="black"/>
</g>
<defs>
<clipPath id="clip0_3_49">
<rect width="43.1904" height="43.1904" fill="white" transform="translate(0.645294 0.899799)"/>
</clipPath>
</defs>
</svg>
