<svg width="22" height="17" viewBox="0 0 22 17" fill="none" xmlns="http://www.w3.org/2000/svg">
<path d="M21.5877 0.94838L11.7283 10.7671C11.4746 11.0194 11.1313 11.161 10.7736 11.161C10.4158 11.161 10.0725 11.0194 9.81877 10.7671L0.047401 1.02287C0.0173619 1.13327 0.00143468 1.24704 0 1.36145V14.9046C0 15.2638 0.142686 15.6082 0.396669 15.8622C0.650652 16.1162 0.995127 16.2589 1.35431 16.2589H20.3147C20.6739 16.2589 21.0184 16.1162 21.2723 15.8622C21.5263 15.6082 21.669 15.2638 21.669 14.9046V1.36145C21.6636 1.22036 21.6362 1.08099 21.5877 0.94838ZM2.28202 14.9046H1.34077V13.9362L6.2637 9.05394L7.21849 10.0087L2.28202 14.9046ZM20.3011 14.9046H19.3531L14.4167 10.0087L15.3715 9.05394L20.2944 13.9362L20.3011 14.9046Z" fill="#B5B5B5"/>
</svg>
