<svg width="41" height="45" viewBox="0 0 41 45" fill="none" xmlns="http://www.w3.org/2000/svg">
<path d="M20.2745 44.0902C19.6722 44.0904 19.0805 43.934 18.5589 43.6367L13.0993 40.4448C12.2846 39.9945 12.6816 39.8354 12.951 39.7425C13.8176 39.4781 14.6473 39.1078 15.4209 38.6402C15.4857 38.6107 15.557 38.5979 15.6281 38.6031C15.6993 38.6083 15.7679 38.6314 15.8275 38.6702L20.0226 41.1314C20.1007 41.1722 20.1878 41.1935 20.2761 41.1935C20.3645 41.1935 20.4515 41.1722 20.5297 41.1314L36.8891 31.8062C36.9657 31.7609 37.029 31.6967 37.0729 31.62C37.1168 31.5432 37.1397 31.4565 37.1395 31.3684V12.7149C37.1395 12.6253 37.1162 12.5373 37.0718 12.4592C37.0274 12.3812 36.9634 12.3157 36.8859 12.2692L20.5265 2.9519C20.4493 2.90899 20.3623 2.88645 20.2737 2.88645C20.1852 2.88645 20.0982 2.90899 20.021 2.9519L3.67112 12.2724C3.59313 12.3179 3.52838 12.3826 3.48312 12.4601C3.43787 12.5376 3.41365 12.6254 3.41281 12.7149V31.3605C3.41304 31.4485 3.43693 31.5348 3.48204 31.6106C3.52715 31.6864 3.59185 31.749 3.66953 31.792L8.15642 34.3493C10.588 35.5492 12.0773 34.1351 12.0773 32.7148V14.3053C12.0773 14.18 12.1277 14.0598 12.2174 13.9712C12.3071 13.8826 12.4288 13.8329 12.5556 13.8329H14.6285C14.7553 13.8329 14.877 13.8826 14.9667 13.9712C15.0564 14.0598 15.1068 14.18 15.1068 14.3053V32.7163C15.1068 35.9208 13.3401 37.7553 10.2627 37.7553C8.93513 37.7781 7.62834 37.4275 6.49496 36.7443L2.19462 34.3083C1.67257 34.0081 1.23939 33.5779 0.938339 33.0606C0.637284 32.5433 0.478885 31.9572 0.478954 31.3605V12.7149C0.477402 12.1173 0.635132 11.5299 0.936292 11.0116C1.23745 10.4934 1.67143 10.0625 2.19462 9.76235L18.5557 0.433997C19.0827 0.149245 19.6738 0 20.2745 0C20.8753 0 21.4664 0.149245 21.9934 0.433997L38.3529 9.76235C38.8749 10.062 39.3081 10.4916 39.6095 11.0083C39.9108 11.525 40.0696 12.1107 40.0701 12.707V31.3605C40.0692 31.9571 39.9103 32.5431 39.609 33.0603C39.3077 33.5774 38.8747 34.0077 38.3529 34.3083L21.9934 43.6367C21.4708 43.9345 20.8779 44.0909 20.2745 44.0902Z" fill="#83CD29"/>
<path d="M17.1717 25.1201C17.1717 24.9949 17.2221 24.8747 17.3118 24.7861C17.4015 24.6975 17.5231 24.6477 17.65 24.6477H19.7659C19.8789 24.6481 19.9882 24.688 20.0743 24.7604C20.1604 24.8327 20.2178 24.9328 20.2363 25.043C20.5552 27.1704 21.5119 28.2427 25.8377 28.2427C29.2834 28.2427 30.7519 27.4727 30.7519 25.6666C30.7519 24.6257 30.3358 23.8525 24.9799 23.3345C20.5025 22.8967 17.7345 21.9173 17.7345 18.3837C17.7345 15.1241 20.5169 13.1794 25.1808 13.1794C30.4219 13.1794 33.0161 14.9761 33.3446 18.8309C33.3496 18.8953 33.3412 18.96 33.3199 19.021C33.2986 19.082 33.2649 19.1381 33.2208 19.1858C33.1768 19.2334 33.1233 19.2716 33.0636 19.2981C33.004 19.3245 32.9395 19.3386 32.8742 19.3395H30.744C30.6371 19.3381 30.5338 19.3013 30.4506 19.2351C30.3673 19.1688 30.309 19.077 30.2847 18.9742C29.7761 16.7366 28.5308 16.0217 25.1824 16.0217C21.4194 16.0217 20.9825 17.3161 20.9825 18.2861C20.9825 19.4608 21.4991 19.8041 26.5791 20.467C31.6066 21.1236 33.9951 22.0527 33.9951 25.5422C33.9951 29.0631 31.023 31.0787 25.8393 31.0787C18.6721 31.0881 17.1717 27.8428 17.1717 25.1201Z" fill="#83CD29"/>
</svg>
