<svg width="17" height="16" viewBox="0 0 17 16" fill="none" xmlns="http://www.w3.org/2000/svg">
<path d="M13.14 16H2.14001C1.60958 16 1.10087 15.7893 0.725801 15.4142C0.350728 15.0391 0.140015 14.5304 0.140015 14V3C0.140015 2.46957 0.350728 1.96086 0.725801 1.58579C1.10087 1.21071 1.60958 1 2.14001 1H6.14002V3H2.14001V14H13.14V10H15.14V14C15.14 14.5304 14.9293 15.0391 14.5542 15.4142C14.1792 15.7893 13.6704 16 13.14 16ZM7.84001 9.707L6.43002 8.293L12.723 2H9.14001V0H16.14V7H14.14V3.415L7.84001 9.707Z" fill="#B5B5B5"/>
</svg>
